<svg width="32" height="32" viewBox="0 0 32 32" fill="none" xmlns="http://www.w3.org/2000/svg">
<g clip-path="url(#clip0_1_31)">
<rect width="32" height="32" fill="white"/>
<rect width="32" height="32" rx="2" fill="white"/>
<path d="M22.2513 22.198C21.3033 22.198 20.4213 22.036 19.6053 21.712C18.8013 21.376 18.0933 20.908 17.4813 20.308C16.8813 19.708 16.4133 19.012 16.0773 18.22C15.7413 17.416 15.5733 16.552 15.5733 15.628C15.5733 14.704 15.7413 13.846 16.0773 13.054C16.4133 12.25 16.8813 11.554 17.4813 10.966C18.0813 10.378 18.7833 9.922 19.5873 9.598C20.4033 9.262 21.2853 9.094 22.2333 9.094C23.2413 9.094 24.1353 9.256 24.9153 9.58C25.7073 9.904 26.3973 10.348 26.9853 10.912L25.0953 12.82C24.7593 12.46 24.3513 12.178 23.8713 11.974C23.4033 11.77 22.8573 11.668 22.2333 11.668C21.6813 11.668 21.1713 11.764 20.7033 11.956C20.2473 12.136 19.8513 12.4 19.5153 12.748C19.1913 13.096 18.9333 13.516 18.7413 14.008C18.5613 14.5 18.4713 15.04 18.4713 15.628C18.4713 16.228 18.5613 16.774 18.7413 17.266C18.9333 17.758 19.1913 18.178 19.5153 18.526C19.8513 18.874 20.2473 19.144 20.7033 19.336C21.1713 19.528 21.6813 19.624 22.2333 19.624C22.8813 19.624 23.4453 19.522 23.9253 19.318C24.4053 19.114 24.8193 18.832 25.1673 18.472L27.0753 20.38C26.4633 20.944 25.7613 21.388 24.9693 21.712C24.1893 22.036 23.2833 22.198 22.2513 22.198Z" fill="#2C2C2C"/>
<path d="M3.86258 22L8.90258 9.292H11.4586L16.4446 22H13.4566L9.64058 11.452H10.6666L6.79658 22H3.86258ZM6.72458 19.696V17.392H13.6546V19.696H6.72458Z" fill="#2C2C2C"/>
</g>
<defs>
<clipPath id="clip0_1_31">
<rect width="32" height="32" fill="white"/>
</clipPath>
</defs>
</svg>
